<svg width="25" height="24" viewBox="0 0 25 24" fill="none" xmlns="http://www.w3.org/2000/svg">
<path d="M15.1575 12.0002L24.5224 2.65458C25.1319 2.04669 25.1319 1.06381 24.5224 0.455919C23.9133 -0.151973 22.9283 -0.151973 22.3192 0.455919L12.954 9.80152L3.58907 0.455919C2.97962 -0.151973 1.99497 -0.151973 1.3858 0.455919C0.776348 1.06381 0.776348 2.04669 1.3858 2.65458L10.7507 12.0002L1.3858 21.3458C0.776348 21.9537 0.776348 22.9365 1.3858 23.5444C1.68938 23.8477 2.08855 24 2.48744 24C2.88632 24 3.2852 23.8477 3.58907 23.5444L12.954 14.1988L22.3192 23.5444C22.623 23.8477 23.0219 24 23.4208 24C23.8197 24 24.2186 23.8477 24.5224 23.5444C25.1319 22.9365 25.1319 21.9537 24.5224 21.3458L15.1575 12.0002Z" fill="#AE7C78"/>
</svg>
