<svg width="17" height="19" fill="none" viewBox="0 0 18 20" xmlns="http://www.w3.org/2000/svg">
<g>
<path fill="#AE7C78" d="M1 2a1 1 0 100 2h16a1 1 0 100-2H1z" fill-rule="evenodd" clip-rule="evenodd"></path>
<path fill="#AE7C78" fill-rule="evenodd" d="M7 0a1 1 0 00-1 1v1h6V1a1 1 0 00-1-1H7z" clip-rule="evenodd"></path></g>
<path fill="#AE7C78" d="M1.922 6a.98.98 0 00-.988 1.065v.01l1.418 11.558a1.5 1.5 0 001.494 1.365H14.12a1.5 1.5 0 001.494-1.365l1.424-11.558v-.01A.982.982 0 0016.048 6a.987.987 0 00-.997.886L13.703 17.53v.01a.5.5 0 01-.5.459h-8.44a.5.5 0 01-.499-.459v-.01L2.922 6.887A.99.99 0 001.922 6z"></path>
<path fill="#AE7C78" d="M6.5 6a.986.986 0 00-.998 1.033L6 15.034v.002c.028.53.468.964 1 .964.572 0 1.025-.495.997-1.066l-.5-8v-.002A.985.985 0 006.5 6zM11.5 6c-.532 0-.97.4-.998.932v.001l-.499 7.999v.002C9.974 15.505 10.428 16 11 16c.532 0 .972-.433 1-.964v-.002l.498-7.998v-.003A.986.986 0 0011.5 6z"></path>
</svg>